<svg width="42" height="50" viewBox="0 0 42 50" fill="none" xmlns="http://www.w3.org/2000/svg">
<path d="M18.1842 30.6062L18.0938 30.7661L41.8726 44.2098L41.9631 44.0499L18.1842 30.6062Z" fill="white"/>
<path d="M38.312 0H2.35425V50H38.312C38.4412 50 38.5651 49.9487 38.6564 49.8574C38.7477 49.766 38.799 49.6422 38.799 49.513V0.487013C38.799 0.35785 38.7477 0.233979 38.6564 0.142647C38.5651 0.0513146 38.4412 2.7754e-06 38.312 0V0ZM4.38347 48.6201C4.20688 48.6201 4.03425 48.5678 3.88742 48.4697C3.74059 48.3715 3.62615 48.2321 3.55857 48.069C3.49099 47.9058 3.47331 47.7263 3.50776 47.5531C3.54222 47.3799 3.62725 47.2208 3.75212 47.0959C3.87699 46.9711 4.03608 46.886 4.20928 46.8516C4.38248 46.8171 4.562 46.8348 4.72515 46.9024C4.8883 46.97 5.02774 47.0844 5.12585 47.2312C5.22396 47.3781 5.27632 47.5507 5.27632 47.7273C5.27632 47.8445 5.25323 47.9606 5.20836 48.069C5.16349 48.1773 5.09772 48.2757 5.01481 48.3586C4.9319 48.4415 4.83348 48.5073 4.72515 48.5522C4.61682 48.597 4.50072 48.6201 4.38347 48.6201V48.6201ZM4.38347 44.0747C4.20688 44.0747 4.03425 44.0223 3.88742 43.9242C3.74059 43.8261 3.62615 43.6867 3.55857 43.5235C3.491 43.3604 3.47332 43.1808 3.50777 43.0076C3.54222 42.8344 3.62725 42.6753 3.75212 42.5505C3.87699 42.4256 4.03608 42.3406 4.20928 42.3061C4.38248 42.2717 4.562 42.2894 4.72515 42.3569C4.8883 42.4245 5.02774 42.5389 5.12585 42.6858C5.22396 42.8326 5.27632 43.0052 5.27632 43.1818C5.27632 43.2991 5.25323 43.4152 5.20836 43.5235C5.16349 43.6318 5.09772 43.7303 5.01481 43.8132C4.93191 43.8961 4.83348 43.9618 4.72515 44.0067C4.61682 44.0516 4.50072 44.0747 4.38347 44.0747V44.0747ZM4.38347 39.5292C4.20688 39.5292 4.03425 39.4769 3.88742 39.3787C3.74059 39.2806 3.62615 39.1412 3.55857 38.978C3.491 38.8149 3.47332 38.6354 3.50777 38.4622C3.54222 38.289 3.62725 38.1299 3.75212 38.005C3.87699 37.8801 4.03608 37.7951 4.20928 37.7607C4.38248 37.7262 4.562 37.7439 4.72515 37.8115C4.8883 37.8791 5.02774 37.9935 5.12585 38.1403C5.22396 38.2872 5.27632 38.4598 5.27632 38.6364C5.27632 38.7536 5.25323 38.8697 5.20836 38.978C5.16349 39.0864 5.09772 39.1848 5.01481 39.2677C4.9319 39.3506 4.83348 39.4164 4.72515 39.4613C4.61682 39.5061 4.50072 39.5292 4.38347 39.5292V39.5292ZM4.38347 34.9838C4.20688 34.9838 4.03425 34.9314 3.88742 34.8333C3.74059 34.7352 3.62615 34.5957 3.55857 34.4326C3.491 34.2694 3.47332 34.0899 3.50777 33.9167C3.54222 33.7435 3.62725 33.5844 3.75212 33.4596C3.87699 33.3347 4.03608 33.2497 4.20928 33.2152C4.38248 33.1808 4.562 33.1984 4.72515 33.266C4.8883 33.3336 5.02774 33.448 5.12585 33.5949C5.22396 33.7417 5.27632 33.9143 5.27632 34.0909C5.27632 34.2082 5.25323 34.3243 5.20836 34.4326C5.16349 34.5409 5.09772 34.6393 5.01481 34.7223C4.9319 34.8052 4.83348 34.8709 4.72515 34.9158C4.61682 34.9607 4.50072 34.9838 4.38347 34.9838V34.9838ZM4.38347 30.4383C4.20688 30.4383 4.03425 30.3859 3.88742 30.2878C3.74059 30.1897 3.62615 30.0503 3.55857 29.8871C3.491 29.724 3.47332 29.5445 3.50777 29.3713C3.54222 29.1981 3.62725 29.039 3.75212 28.9141C3.87699 28.7892 4.03608 28.7042 4.20928 28.6698C4.38248 28.6353 4.562 28.653 4.72515 28.7206C4.8883 28.7881 5.02774 28.9026 5.12585 29.0494C5.22396 29.1962 5.27632 29.3689 5.27632 29.5455C5.27632 29.6627 5.25323 29.7788 5.20836 29.8871C5.16349 29.9955 5.09772 30.0939 5.01481 30.1768C4.9319 30.2597 4.83348 30.3255 4.72515 30.3703C4.61682 30.4152 4.50072 30.4383 4.38347 30.4383V30.4383ZM4.38347 25.8929C4.20688 25.8929 4.03425 25.8405 3.88742 25.7424C3.74059 25.6443 3.62615 25.5048 3.55857 25.3417C3.491 25.1785 3.47332 24.999 3.50777 24.8258C3.54222 24.6526 3.62725 24.4935 3.75212 24.3687C3.87699 24.2438 4.03608 24.1587 4.20928 24.1243C4.38248 24.0898 4.562 24.1075 4.72515 24.1751C4.8883 24.2427 5.02774 24.3571 5.12585 24.504C5.22396 24.6508 5.27632 24.8234 5.27632 25C5.27632 25.1173 5.25323 25.2334 5.20836 25.3417C5.16349 25.45 5.09772 25.5484 5.01481 25.6313C4.9319 25.7143 4.83348 25.78 4.72515 25.8249C4.61682 25.8698 4.50072 25.8929 4.38347 25.8929V25.8929ZM4.38347 21.3474C4.20688 21.3474 4.03425 21.295 3.88742 21.1969C3.74059 21.0988 3.62615 20.9594 3.55857 20.7962C3.491 20.6331 3.47332 20.4536 3.50777 20.2804C3.54222 20.1072 3.62725 19.9481 3.75212 19.8232C3.87699 19.6983 4.03608 19.6133 4.20928 19.5788C4.38248 19.5444 4.562 19.5621 4.72515 19.6297C4.8883 19.6972 5.02774 19.8117 5.12585 19.9585C5.22396 20.1053 5.27632 20.278 5.27632 20.4545C5.27632 20.5718 5.25323 20.6879 5.20836 20.7962C5.16349 20.9046 5.09772 21.003 5.01481 21.0859C4.9319 21.1688 4.83348 21.2346 4.72515 21.2794C4.61682 21.3243 4.50072 21.3474 4.38347 21.3474V21.3474ZM4.38347 16.8019C4.20688 16.8019 4.03425 16.7496 3.88742 16.6515C3.74059 16.5534 3.62615 16.4139 3.55857 16.2508C3.491 16.0876 3.47332 15.9081 3.50777 15.7349C3.54222 15.5617 3.62725 15.4026 3.75212 15.2777C3.87699 15.1529 4.03608 15.0678 4.20928 15.0334C4.38248 14.9989 4.562 15.0166 4.72515 15.0842C4.8883 15.1518 5.02774 15.2662 5.12585 15.413C5.22396 15.5599 5.27632 15.7325 5.27632 15.9091C5.27632 16.0263 5.25323 16.1424 5.20836 16.2508C5.16349 16.3591 5.09772 16.4575 5.01481 16.5404C4.9319 16.6233 4.83348 16.6891 4.72515 16.734C4.61682 16.7789 4.50072 16.802 4.38347 16.8019V16.8019ZM4.38347 12.2565C4.20688 12.2565 4.03425 12.2041 3.88742 12.106C3.74059 12.0079 3.62615 11.8685 3.55857 11.7053C3.491 11.5422 3.47332 11.3626 3.50777 11.1894C3.54222 11.0163 3.62725 10.8572 3.75212 10.7323C3.87699 10.6074 4.03608 10.5224 4.20928 10.4879C4.38248 10.4535 4.562 10.4712 4.72515 10.5387C4.8883 10.6063 5.02774 10.7208 5.12585 10.8676C5.22396 11.0144 5.27632 11.187 5.27632 11.3636C5.27632 11.4809 5.25323 11.597 5.20836 11.7053C5.16349 11.8136 5.09772 11.9121 5.01481 11.995C4.9319 12.0779 4.83348 12.1437 4.72515 12.1885C4.61682 12.2334 4.50072 12.2565 4.38347 12.2565V12.2565ZM4.38347 7.71104C4.20688 7.71104 4.03425 7.65868 3.88742 7.56057C3.74059 7.46246 3.62615 7.32301 3.55857 7.15986C3.49099 6.99672 3.47331 6.81719 3.50776 6.644C3.54222 6.4708 3.62725 6.3117 3.75212 6.18684C3.87699 6.06197 4.03608 5.97693 4.20928 5.94248C4.38248 5.90803 4.562 5.92571 4.72515 5.99329C4.8883 6.06087 5.02774 6.17531 5.12585 6.32214C5.22396 6.46897 5.27632 6.64159 5.27632 6.81818C5.27632 6.93543 5.25323 7.05154 5.20836 7.15986C5.16349 7.26819 5.09772 7.36662 5.01481 7.44953C4.9319 7.53244 4.83348 7.59821 4.72515 7.64308C4.61682 7.68795 4.50072 7.71104 4.38347 7.71104V7.71104ZM4.38347 3.16558C4.20688 3.16559 4.03425 3.11322 3.88742 3.01511C3.74059 2.917 3.62615 2.77756 3.55857 2.61441C3.49099 2.45126 3.47331 2.27174 3.50776 2.09854C3.54222 1.92534 3.62725 1.76625 3.75212 1.64138C3.87699 1.51651 4.03608 1.43148 4.20928 1.39703C4.38248 1.36257 4.562 1.38026 4.72515 1.44783C4.8883 1.51541 5.02774 1.62985 5.12585 1.77668C5.22396 1.92351 5.27632 2.09614 5.27632 2.27273C5.27632 2.38998 5.25323 2.50608 5.20836 2.61441C5.16349 2.72274 5.09772 2.82116 5.01481 2.90407C4.9319 2.98698 4.83348 3.05275 4.72515 3.09762C4.61682 3.14249 4.50072 3.16559 4.38347 3.16558V3.16558Z" fill="#3F3D56"/>
<path d="M2.3539 2.75969C2.11297 2.75969 0 2.74831 0 2.35384C0 1.95937 2.11297 1.948 2.3539 1.948V2.11034C1.10938 2.11034 0.30242 2.24965 0.172463 2.35384C0.30242 2.45804 1.10938 2.59735 2.3539 2.59735C3.59563 2.59735 4.40176 2.45863 4.53444 2.35456C4.4713 2.30997 4.21338 2.21652 3.52157 2.15671L3.53554 1.99501C4.70779 2.09631 4.70779 2.28342 4.70779 2.35384C4.70779 2.74831 2.59483 2.75969 2.3539 2.75969Z" fill="#2F2E41"/>
<path d="M2.3539 7.2238C2.11297 7.2238 0 7.21242 0 6.81795C0 6.42348 2.11297 6.41211 2.3539 6.41211V6.57445C1.10938 6.57445 0.30242 6.71376 0.172463 6.81795C0.30242 6.92215 1.10938 7.06146 2.3539 7.06146C3.59563 7.06146 4.40176 6.92274 4.53444 6.81867C4.4713 6.77408 4.21338 6.68063 3.52157 6.62082L3.53554 6.45912C4.70779 6.56042 4.70779 6.74753 4.70779 6.81796C4.70779 7.21242 2.59483 7.2238 2.3539 7.2238Z" fill="#2F2E41"/>
<path d="M2.3539 11.7697C2.11297 11.7697 0 11.7583 0 11.3638C0 10.9694 2.11297 10.958 2.3539 10.958V11.1203C1.10938 11.1203 0.30242 11.2597 0.172463 11.3638C0.30242 11.468 1.10938 11.6074 2.3539 11.6074C3.59563 11.6074 4.40176 11.4686 4.53444 11.3646C4.4713 11.32 4.21338 11.2265 3.52157 11.1667L3.53554 11.005C4.70779 11.1063 4.70779 11.2934 4.70779 11.3639C4.70779 11.7583 2.59483 11.7697 2.3539 11.7697Z" fill="#2F2E41"/>
<path d="M2.3539 16.3151C2.11297 16.3151 0 16.3037 0 15.9093C0 15.5148 2.11297 15.5034 2.3539 15.5034V15.6658C1.10938 15.6658 0.30242 15.8051 0.172463 15.9093C0.30242 16.0135 1.10938 16.1528 2.3539 16.1528C3.59563 16.1528 4.40176 16.014 4.53444 15.91C4.4713 15.8654 4.21338 15.7719 3.52157 15.7121L3.53554 15.5504C4.70779 15.6517 4.70779 15.8388 4.70779 15.9093C4.70779 16.3037 2.59483 16.3151 2.3539 16.3151Z" fill="#2F2E41"/>
<path d="M2.3539 20.8605C2.11297 20.8605 0 20.8491 0 20.4547C0 20.0602 2.11297 20.0488 2.3539 20.0488V20.2112C1.10938 20.2112 0.30242 20.3505 0.172463 20.4547C0.30242 20.5589 1.10938 20.6982 2.3539 20.6982C3.59563 20.6982 4.40176 20.5595 4.53444 20.4554C4.4713 20.4108 4.21338 20.3173 3.52157 20.2575L3.53554 20.0958C4.70779 20.1971 4.70779 20.3842 4.70779 20.4547C4.70779 20.8491 2.59483 20.8605 2.3539 20.8605Z" fill="#2F2E41"/>
<path d="M2.3539 25.4057C2.11297 25.4057 0 25.3943 0 24.9998C0 24.6054 2.11297 24.594 2.3539 24.594V24.7563C1.10938 24.7563 0.30242 24.8956 0.172463 24.9998C0.30242 25.104 1.10938 25.2433 2.3539 25.2433C3.59563 25.2433 4.40176 25.1046 4.53444 25.0006C4.4713 24.956 4.21338 24.8625 3.52157 24.8027L3.53554 24.641C4.70779 24.7423 4.70779 24.9294 4.70779 24.9998C4.70779 25.3943 2.59483 25.4057 2.3539 25.4057Z" fill="#2F2E41"/>
<path d="M2.3539 29.9511C2.11297 29.9511 0 29.9397 0 29.5452C0 29.1508 2.11297 29.1394 2.3539 29.1394V29.3017C1.10938 29.3017 0.30242 29.4411 0.172463 29.5452C0.30242 29.6494 1.10938 29.7888 2.3539 29.7888C3.59563 29.7888 4.40176 29.65 4.53444 29.546C4.4713 29.5014 4.21338 29.4079 3.52157 29.3481L3.53554 29.1864C4.70779 29.2877 4.70779 29.4748 4.70779 29.5452C4.70779 29.9397 2.59483 29.9511 2.3539 29.9511Z" fill="#2F2E41"/>
<path d="M2.3539 34.4967C2.11297 34.4967 0 34.4854 0 34.0909C0 33.6964 2.11297 33.6851 2.3539 33.6851V33.8474C1.10938 33.8474 0.30242 33.9867 0.172463 34.0909C0.30242 34.1951 1.10938 34.3344 2.3539 34.3344C3.59563 34.3344 4.40176 34.1957 4.53444 34.0916C4.4713 34.047 4.21338 33.9536 3.52157 33.8938L3.53554 33.7321C4.70779 33.8334 4.70779 34.0205 4.70779 34.0909C4.70779 34.4854 2.59483 34.4967 2.3539 34.4967Z" fill="#2F2E41"/>
<path d="M2.3539 39.0424C2.11297 39.0424 0 39.031 0 38.6366C0 38.2421 2.11297 38.2307 2.3539 38.2307V38.3931C1.10938 38.3931 0.30242 38.5324 0.172463 38.6366C0.30242 38.7408 1.10938 38.8801 2.3539 38.8801C3.59563 38.8801 4.40176 38.7413 4.53444 38.6373C4.4713 38.5927 4.21338 38.4992 3.52157 38.4394L3.53554 38.2777C4.70779 38.379 4.70779 38.5661 4.70779 38.6366C4.70779 39.031 2.59483 39.0424 2.3539 39.0424Z" fill="#2F2E41"/>
<path d="M2.3539 43.5878C2.11297 43.5878 0 43.5764 0 43.182C0 42.7875 2.11297 42.7761 2.3539 42.7761V42.9385C1.10938 42.9385 0.30242 43.0778 0.172463 43.182C0.30242 43.2862 1.10938 43.4255 2.3539 43.4255C3.59563 43.4255 4.40176 43.2868 4.53444 43.1827C4.4713 43.1381 4.21338 43.0446 3.52157 42.9848L3.53554 42.8231C4.70779 42.9244 4.70779 43.1115 4.70779 43.182C4.70779 43.5764 2.59483 43.5878 2.3539 43.5878Z" fill="#2F2E41"/>
<path d="M2.3539 48.1332C2.11297 48.1332 0 48.1218 0 47.7274C0 47.3329 2.11297 47.3215 2.3539 47.3215V47.4839C1.10938 47.4839 0.30242 47.6232 0.172463 47.7274C0.30242 47.8316 1.10938 47.9709 2.3539 47.9709C3.59563 47.9709 4.40176 47.8322 4.53444 47.7281C4.4713 47.6835 4.21338 47.5901 3.52157 47.5302L3.53554 47.3685C4.70779 47.4698 4.70779 47.6569 4.70779 47.7274C4.70779 48.1218 2.59483 48.1332 2.3539 48.1332Z" fill="#2F2E41"/>
<path d="M30.9658 19.1153H13.1087C12.9688 19.1151 12.8347 19.0595 12.7358 18.9606C12.6369 18.8617 12.5812 18.7276 12.5811 18.5877V11.6072C12.5812 11.4673 12.6369 11.3332 12.7358 11.2343C12.8347 11.1354 12.9688 11.0797 13.1087 11.0796H30.9658C31.1057 11.0797 31.2398 11.1354 31.3387 11.2343C31.4376 11.3332 31.4932 11.4673 31.4934 11.6072V18.5877C31.4932 18.7276 31.4376 18.8617 31.3387 18.9606C31.2398 19.0595 31.1057 19.1151 30.9658 19.1153V19.1153Z" fill="white"/>
<path d="M24.3099 13.474H19.7645C19.6569 13.474 19.5536 13.4313 19.4775 13.3552C19.4014 13.2791 19.3586 13.1758 19.3586 13.0682C19.3586 12.9606 19.4014 12.8573 19.4775 12.7812C19.5536 12.7051 19.6569 12.6624 19.7645 12.6624H24.3099C24.4176 12.6624 24.5208 12.7051 24.5969 12.7812C24.673 12.8573 24.7158 12.9606 24.7158 13.0682C24.7158 13.1758 24.673 13.2791 24.5969 13.3552C24.5208 13.4313 24.4176 13.474 24.3099 13.474H24.3099Z" fill="#6C63FF"/>
<path d="M26.8261 15.5031H17.2481C17.1405 15.5031 17.0373 15.4603 16.9612 15.3842C16.885 15.3081 16.8423 15.2049 16.8423 15.0973C16.8423 14.9896 16.885 14.8864 16.9612 14.8103C17.0373 14.7342 17.1405 14.6914 17.2481 14.6914H26.8261C26.9337 14.6914 27.0369 14.7342 27.113 14.8103C27.1891 14.8864 27.2319 14.9896 27.2319 15.0973C27.2319 15.2049 27.1891 15.3081 27.113 15.3842C27.0369 15.4603 26.9337 15.5031 26.8261 15.5031Z" fill="#6C63FF"/>
<path d="M26.8261 17.5324H17.2481C17.1405 17.5324 17.0373 17.4896 16.9612 17.4135C16.885 17.3374 16.8423 17.2342 16.8423 17.1265C16.8423 17.0189 16.885 16.9157 16.9612 16.8396C17.0373 16.7635 17.1405 16.7207 17.2481 16.7207H26.8261C26.9337 16.7207 27.0369 16.7635 27.113 16.8396C27.1891 16.9157 27.2319 17.0189 27.2319 17.1265C27.2319 17.2342 27.1891 17.3374 27.113 17.4135C27.0369 17.4896 26.9337 17.5324 26.8261 17.5324Z" fill="#6C63FF"/>
</svg>
